<svg width="45" height="45" viewBox="0 0 45 45" fill="none" xmlns="http://www.w3.org/2000/svg">
<path d="M22.5 0C10.0748 0 0 10.0748 0 22.5C0 34.9252 10.0748 45 22.5 45C34.9252 45 45 34.9252 45 22.5C45 10.0748 34.9252 0 22.5 0ZM23.62 33.4085L23.63 35.0006C23.63 35.2215 23.4492 35.4074 23.2282 35.4074H21.8019C21.5809 35.4074 21.4001 35.2266 21.4001 35.0056V33.4286C16.9403 33.0971 14.841 30.5558 14.615 27.7935C14.5949 27.5575 14.7807 27.3566 15.0167 27.3566H17.3371C17.5329 27.3566 17.7037 27.4972 17.7338 27.6881C17.99 29.2801 19.2305 30.4704 21.4554 30.7667V23.5999L20.2148 23.2835C17.5882 22.6557 15.0871 21.0184 15.0871 17.6233C15.0871 13.9621 17.8694 11.9933 21.4252 11.6468V9.9894C21.4252 9.76841 21.606 9.58761 21.827 9.58761H23.2383C23.4593 9.58761 23.6401 9.76841 23.6401 9.9894V11.6317C27.0804 11.9782 29.6618 13.9872 29.9632 17.1161C29.9883 17.3521 29.8025 17.558 29.5614 17.558H27.3064C27.1055 17.558 26.9347 17.4074 26.9096 17.2115C26.7087 15.745 25.5335 14.5497 23.62 14.2885V21.0335L24.8956 21.3298C28.1501 22.1334 30.365 23.6903 30.365 27.1758C30.365 30.9576 27.5525 33.067 23.62 33.4085ZM18.2109 17.3923C18.2109 18.668 18.9994 19.6574 20.697 20.2701C20.933 20.3655 21.1691 20.4408 21.4503 20.5212V14.2935C19.5971 14.5296 18.2109 15.5692 18.2109 17.3923ZM24.0619 24.1825C23.9213 24.1523 23.7807 24.1172 23.62 24.072V30.7868C25.7595 30.596 27.236 29.4208 27.236 27.452C27.236 25.9102 26.4375 24.9057 24.0619 24.1825Z" fill="#CE552C"/>
</svg>
