<svg width="135" height="68" viewBox="0 0 135 68" fill="none" xmlns="http://www.w3.org/2000/svg">
<path d="M129.248 53.0906C128.642 55.0623 126.948 57.116 123.374 58.9014C119.786 60.6943 114.715 61.985 108.34 62.5291C95.6182 63.6149 78.7514 61.6406 60.871 56.1484C42.9906 50.6563 27.9239 42.8218 18.0055 34.7819C13.0352 30.7529 9.56317 26.8382 7.59973 23.3399C5.64445 19.8562 5.3954 17.2057 6.00104 15.2339C6.60669 13.2622 8.3007 11.2085 11.8745 9.42307C15.4631 7.63021 20.534 6.33951 26.909 5.79539C39.6305 4.70959 56.4973 6.68388 74.3777 12.1761C92.2581 17.6682 107.325 25.5027 117.243 33.5426C122.214 37.5716 125.686 41.4863 127.649 44.9846C129.604 48.4683 129.853 51.1189 129.248 53.0906Z" stroke="#FFD951" stroke-width="10"/>
</svg>
