<svg width="60" height="60" viewBox="0 0 60 60" fill="none" xmlns="http://www.w3.org/2000/svg">
<path d="M30 60C13.431 60 0 46.569 0 30C0 13.431 13.431 0 30 0C46.569 0 60 13.431 60 30C59.982 46.56 46.56 59.982 30 60ZM30 6C25.2532 6 20.6131 7.40758 16.6663 10.0447C12.7195 12.6819 9.6434 16.4302 7.82689 20.8156C6.01039 25.201 5.53511 30.0266 6.46115 34.6822C7.3872 39.3377 9.67298 43.6141 13.0294 46.9706C16.3859 50.327 20.6623 52.6128 25.3178 53.5388C29.9734 54.4649 34.799 53.9896 39.1844 52.1731C43.5698 50.3566 47.3181 47.2805 49.9553 43.3337C52.5924 39.3869 54 34.7467 54 30C53.9929 23.637 51.462 17.5367 46.9627 13.0373C42.4633 8.538 36.363 6.00715 30 6ZM30 48C27.6646 48.0395 25.3541 47.5147 23.2649 46.4701C21.1758 45.4255 19.3696 43.8921 18 42C16.6502 40.1949 15.6342 38.1629 15 36H45V36.024C44.356 38.1756 43.3407 40.1981 42 42C40.6302 43.8919 38.824 45.4252 36.7349 46.4698C34.6458 47.5143 32.3354 48.0393 30 48ZM19.5 30C18.3065 30 17.1619 29.5259 16.318 28.682C15.4741 27.8381 15 26.6935 15 25.5C15 24.3065 15.4741 23.1619 16.318 22.318C17.1619 21.4741 18.3065 21 19.5 21C20.6935 21 21.8381 21.4741 22.682 22.318C23.5259 23.1619 24 24.3065 24 25.5C24 26.6935 23.5259 27.8381 22.682 28.682C21.8381 29.5259 20.6935 30 19.5 30ZM40.479 29.958C39.2911 29.958 38.1518 29.4861 37.3119 28.6461C36.4719 27.8062 36 26.6669 36 25.479C36 24.2911 36.4719 23.1518 37.3119 22.3119C38.1518 21.4719 39.2911 21 40.479 21C41.6669 21 42.8062 21.4719 43.6461 22.3119C44.4861 23.1518 44.958 24.2911 44.958 25.479C44.958 26.6669 44.4861 27.8062 43.6461 28.6461C42.8062 29.4861 41.6669 29.958 40.479 29.958Z" fill="#615C59"/>
</svg>
