<svg width="48" height="36" viewBox="0 0 48 36" fill="none" xmlns="http://www.w3.org/2000/svg">
<path d="M38.0019 0.813474C37.4435 0.856964 36.9098 1.0621 36.466 1.40383C36.0222 1.74557 35.6875 2.20912 35.5027 2.7379C35.318 3.26668 35.2911 3.83781 35.4256 4.38157C35.56 4.92534 35.8498 5.41821 36.2596 5.80001C37.8634 7.40063 39.135 9.30246 40.0013 11.3962C40.8677 13.4899 41.3116 15.7342 41.3077 18C41.3104 20.2657 40.8658 22.5096 39.9996 24.6031C39.1333 26.6967 37.8624 28.5986 36.2596 30.2C35.9811 30.466 35.7585 30.785 35.605 31.1383C35.4515 31.4915 35.3701 31.8719 35.3657 32.2571C35.3612 32.6422 35.4338 33.0243 35.5792 33.381C35.7245 33.7377 35.9397 34.0618 36.212 34.3341C36.4844 34.6065 36.8084 34.8217 37.1651 34.967C37.5218 35.1124 37.904 35.1849 38.2891 35.1805C38.6743 35.1761 39.0546 35.0947 39.4079 34.9412C39.7611 34.7877 40.0801 34.5651 40.3461 34.2865C44.6571 29.9626 47.0779 24.1058 47.0779 18C47.0779 11.8942 44.6571 6.03743 40.3461 1.71347C40.0825 1.43475 39.7659 1.21142 39.4149 1.05655C39.0639 0.901681 38.6855 0.818389 38.3019 0.81155C38.202 0.806347 38.1019 0.806347 38.0019 0.81155V0.813474ZM9.33653 0.871166C8.69725 0.955952 8.10482 1.25251 7.65384 1.71347C3.34286 6.03743 0.922058 11.8942 0.922058 18C0.922058 24.1058 3.34286 29.9626 7.65384 34.2865C7.91986 34.5651 8.23886 34.7877 8.59212 34.9412C8.94537 35.0947 9.32574 35.1761 9.71089 35.1805C10.096 35.1849 10.4782 35.1124 10.8349 34.967C11.1916 34.8217 11.5156 34.6065 11.788 34.3341C12.0603 34.0618 12.2755 33.7377 12.4208 33.381C12.5662 33.0243 12.6388 32.6422 12.6343 32.2571C12.6299 31.8719 12.5485 31.4915 12.395 31.1383C12.2415 30.785 12.0189 30.466 11.7404 30.2C10.1366 28.5994 8.86498 26.6976 7.99866 24.6039C7.13233 22.5102 6.68837 20.2659 6.6923 18C6.68964 15.7343 7.13417 13.4904 8.00042 11.3969C8.86668 9.30336 10.1376 7.40139 11.7404 5.80001C12.1764 5.37653 12.4676 4.82613 12.5723 4.22736C12.6769 3.62859 12.5898 3.01206 12.3232 2.46576C12.0567 1.91947 11.6244 1.47133 11.088 1.18531C10.5517 0.899299 9.93868 0.790025 9.33653 0.873089V0.871166ZM16.6692 7.24232C16.0367 7.31033 15.4445 7.5855 14.9846 8.02501C13.589 9.28582 12.4725 10.8246 11.7068 12.5424C10.9412 14.2603 10.5432 16.1192 10.5385 18C10.5385 21.9385 12.2115 25.5192 14.925 27.9769C15.2053 28.2334 15.5334 28.4321 15.8905 28.5618C16.2477 28.6914 16.6268 28.7495 17.0064 28.7326C17.3859 28.7157 17.7585 28.6243 18.1027 28.4634C18.4469 28.3026 18.756 28.0755 19.0125 27.7952C19.269 27.5149 19.4677 27.1868 19.5973 26.8297C19.727 26.4725 19.7851 26.0934 19.7682 25.7138C19.7513 25.3343 19.6598 24.9617 19.499 24.6175C19.3382 24.2733 19.1111 23.9642 18.8308 23.7077C18.0324 22.9873 17.395 22.1066 16.9603 21.1231C16.5255 20.1395 16.3031 19.0753 16.3077 18C16.3037 16.9243 16.5265 15.8599 16.9616 14.8761C17.3967 13.8923 18.0342 13.0112 18.8327 12.2904C19.2935 11.8895 19.6152 11.3526 19.7514 10.7571C19.8876 10.1616 19.8312 9.5383 19.5904 8.97692C19.3496 8.41554 18.9368 7.94509 18.4115 7.63336C17.8861 7.32163 17.2754 7.18471 16.6673 7.24232H16.6692ZM30.9115 7.24232C30.3395 7.27386 29.7897 7.47505 29.3324 7.82024C28.8751 8.16542 28.531 8.63897 28.3439 9.18051C28.1568 9.72204 28.1352 10.307 28.2818 10.8609C28.4285 11.4148 28.7367 11.9124 29.1673 12.2904C29.9663 13.0108 30.6041 13.8918 31.0392 14.8757C31.4744 15.8596 31.6969 16.9242 31.6923 18C31.6963 19.0757 31.4735 20.1402 31.0384 21.124C30.6033 22.1078 29.9658 22.9888 29.1673 23.7096C28.8459 23.9497 28.5781 24.2541 28.381 24.6035C28.1839 24.953 28.0618 25.3396 28.0226 25.7389C27.9834 26.1381 28.0279 26.5412 28.1533 26.9222C28.2786 27.3033 28.4821 27.6541 28.7507 27.952C29.0193 28.25 29.3471 28.4887 29.7131 28.6529C30.0792 28.817 30.4754 28.903 30.8766 28.9054C31.2777 28.9077 31.675 28.8263 32.0429 28.6665C32.4109 28.5066 32.7414 28.2718 33.0135 27.9769C34.4096 26.7161 35.5266 25.1771 36.2927 23.4589C37.0587 21.7407 37.4568 19.8812 37.4615 18C37.4687 16.1227 37.082 14.2648 36.3264 12.5463C35.5708 10.8278 34.4632 9.28688 33.075 8.02309C32.7872 7.75152 32.4466 7.54207 32.0744 7.40775C31.7023 7.27343 31.3064 7.21712 30.9115 7.24232ZM24 14.5154C23.3109 14.5158 22.6374 14.7205 22.0646 15.1036C21.4918 15.4867 21.0454 16.0311 20.782 16.6678C20.5186 17.3046 20.4498 18.0052 20.5845 18.681C20.7192 19.3568 21.0512 19.9775 21.5386 20.4647C22.026 20.9518 22.6469 21.2835 23.3228 21.4178C23.9987 21.5521 24.6992 21.483 25.3359 21.2192C25.9725 20.9554 26.5166 20.5088 26.8994 19.9358C27.2822 19.3628 27.4865 18.6891 27.4865 18C27.4873 17.5419 27.3976 17.0882 27.2227 16.6649C27.0477 16.2415 26.791 15.8569 26.467 15.533C26.1431 15.2091 25.7585 14.9523 25.3351 14.7773C24.9118 14.6024 24.4581 14.5127 24 14.5135V14.5154Z" fill="#CE552C"/>
</svg>
