<svg width="25" height="21" viewBox="0 0 25 21" fill="none" xmlns="http://www.w3.org/2000/svg">
<path d="M0.908186 1.00941L5.98621 0.0250524C6.53795 -0.081586 7.10435 0.160401 7.32895 0.595158L9.67266 5.18881C9.87773 5.59076 9.74101 6.06243 9.33575 6.33722L6.37683 8.37156C8.1346 11.5174 11.2058 14.1341 15.029 15.6394L17.4508 13.1539C17.7828 12.8135 18.3395 12.6986 18.818 12.8709L24.2866 14.8396C24.8091 15.0324 25.0971 15.5081 24.9702 15.9716L23.7983 20.2371C23.6763 20.6801 23.2075 21 22.6558 21C10.1512 21 0 12.4894 0 1.96915C0 1.50979 0.375971 1.11194 0.908186 1.00941Z" fill="white"/>
</svg>
