<svg width="50" height="40" viewBox="0 0 50 40" fill="none" xmlns="http://www.w3.org/2000/svg">
<path d="M0 12.125C0 11.5547 0.168203 11 0.483438 10.5234L6.38672 1.66953C6.72907 1.15559 7.19316 0.734234 7.73768 0.442958C8.2822 0.151683 8.89028 -0.00048199 9.50781 1.14691e-06H40.4922C41.75 1.14691e-06 42.9141 0.626642 43.6094 1.66953L49.5156 10.5234C49.8281 11 50 11.5547 50 12.125C50 13.7109 48.7109 15 47.125 15H2.87812C1.28906 15 0 13.7109 0 12.125ZM5 17.5H10V30H25V17.5H30V36.25C30 38.3203 28.3203 40 26.25 40H8.75C6.67891 40 5 38.3203 5 36.25V17.5ZM40 17.5H45V37.5C45 38.8828 43.8828 40 42.5 40C41.1172 40 40 38.8828 40 37.5V17.5Z" fill="#CE552C"/>
</svg>
