<svg width="64" height="54" viewBox="0 0 64 54" fill="none" xmlns="http://www.w3.org/2000/svg">
<path d="M15.3334 51.9999C19.0153 51.9999 22 48.802 22 44.8571C22 40.9122 19.0153 37.7142 15.3334 37.7142C11.6515 37.7142 8.66669 40.9122 8.66669 44.8571C8.66669 48.802 11.6515 51.9999 15.3334 51.9999Z" stroke="#615C59" stroke-width="4" stroke-linecap="round" stroke-linejoin="round"/>
<path d="M48.6667 51.9999C52.3486 51.9999 55.3333 48.802 55.3333 44.8571C55.3333 40.9122 52.3486 37.7142 48.6667 37.7142C44.9848 37.7142 42 40.9122 42 44.8571C42 48.802 44.9848 51.9999 48.6667 51.9999Z" stroke="#615C59" stroke-width="4" stroke-linecap="round" stroke-linejoin="round"/>
<path d="M8.66667 44.8571H2V5.57143C2 4.62423 2.35119 3.71582 2.97631 3.04605C3.60143 2.37628 4.44928 2 5.33333 2H35.3333V23.4286H18.6667L25.3333 30.5714M25.3333 16.2857L18.6667 23.4286M22 44.8571H42M35.3333 5.57143H52L62 23.4286V44.8571H55.3333" stroke="#615C59" stroke-width="4" stroke-linecap="round" stroke-linejoin="round"/>
</svg>
